<svg width="24" height="24" viewBox="0 0 24 24" fill="none" xmlns="http://www.w3.org/2000/svg">
<path d="M24 12C24 18.6274 18.6274 24 12 24C5.37258 24 0 18.6274 0 12C0 5.37258 5.37258 0 12 0C18.6274 0 24 5.37258 24 12Z" fill="#703529"/>
<path fill-rule="evenodd" clip-rule="evenodd" d="M10.7866 21.524V19.5039C10.7866 19.4473 10.7667 19.3926 10.7304 19.3491L10.4208 18.9788L4.85494 12.3201C4.78002 12.2305 4.78002 12.1003 4.85494 12.0107L10.4208 5.35201L11.8125 3.6871C11.9094 3.57114 12.0881 3.57114 12.185 3.6871L13.5767 5.35201L19.1426 12.0107C19.2175 12.1003 19.2175 12.2305 19.1426 12.3201L13.5767 18.9788L13.2671 19.3491C13.2308 19.3926 13.2109 19.4473 13.2109 19.5039V21.5244C17.9412 20.929 21.6 16.8918 21.6 12C21.6 6.69807 17.3019 2.4 12 2.4C6.69807 2.4 2.4 6.69807 2.4 12C2.4 16.8909 6.0575 20.9276 10.7866 21.524ZM24 12C24 18.6274 18.6274 24 12 24C5.37258 24 0 18.6274 0 12C0 5.37258 5.37258 0 12 0C18.6274 0 24 5.37258 24 12ZM8.01078 12.3201C7.93586 12.2305 7.93586 12.1003 8.01078 12.0107L11.8125 7.46254C11.9094 7.34659 12.0881 7.34659 12.185 7.46254L15.9867 12.0107C16.0616 12.1003 16.0616 12.2305 15.9867 12.3201L12.185 16.8683C12.0881 16.9842 11.9094 16.9842 11.8125 16.8683L8.01078 12.3201Z" fill="#E2A331"/>
</svg>
